<svg width="18" height="18" viewBox="0 0 18 18" fill="none" xmlns="http://www.w3.org/2000/svg">
<path d="M13.5 0H4.5C1.98 0 0 1.98 0 4.5V13.5C0 16.02 1.98 18 4.5 18H13.5C16.02 18 18 16.02 18 13.5V4.5C18 1.98 16.02 0 13.5 0ZM16.2 13.5C16.2 15.03 15.03 16.2 13.5 16.2H4.5C2.97 16.2 1.8 15.03 1.8 13.5V4.5C1.8 2.97 2.97 1.8 4.5 1.8H13.5C15.03 1.8 16.2 2.97 16.2 4.5V13.5Z" fill="#111111"/>
<path d="M9 4.5C6.48 4.5 4.5 6.48 4.5 9C4.5 11.52 6.48 13.5 9 13.5C11.52 13.5 13.5 11.52 13.5 9C13.5 6.48 11.52 4.5 9 4.5ZM9 11.7C7.47 11.7 6.3 10.53 6.3 9C6.3 7.47 7.47 6.3 9 6.3C10.53 6.3 11.7 7.47 11.7 9C11.7 10.53 10.53 11.7 9 11.7Z" fill="#111111"/>
<path d="M13.5 5.4001C13.997 5.4001 14.4 4.99715 14.4 4.5001C14.4 4.00304 13.997 3.6001 13.5 3.6001C13.0029 3.6001 12.6 4.00304 12.6 4.5001C12.6 4.99715 13.0029 5.4001 13.5 5.4001Z" fill="#111111"/>
</svg>
